<svg xmlns="http://www.w3.org/2000/svg" version="1.1" xmlns:xlink="http://www.w3.org/1999/xlink" xmlns:svgjs="http://svgjs.dev/svgjs" width="1000" height="272" viewBox="0 0 1000 272"><g transform="matrix(1,0,0,1,-0.6060606060606233,0.08980703956157754)"><svg viewBox="0 0 396 108" data-background-color="#ffffff" preserveAspectRatio="xMidYMid meet" height="272" width="1000" xmlns="http://www.w3.org/2000/svg" xmlns:xlink="http://www.w3.org/1999/xlink"><g id="tight-bounds" transform="matrix(1,0,0,1,0.2400000000000091,-0.03565867747298057)"><svg viewBox="0 0 395.52 108.07131735494596" height="108.07131735494596" width="395.52"><g><svg viewBox="0 0 577.5774588415186 157.81643621441393" height="108.07131735494596" width="395.52"><g><rect width="6.531736052454721" height="157.81643621441393" x="158.42693731143368" y="0" fill="#ffffff" opacity="1" stroke-width="0" stroke="transparent" fill-opacity="1" class="rect-r$-0" data-fill-palette-color="primary" rx="1%" id="r$-0" data-palette-color="#ffffff"></rect></g><g transform="matrix(1,0,0,1,182.05745884151855,0.3925781995383346)"><svg viewBox="0 0 395.52 157.03127981533726" height="157.03127981533726" width="395.52"><g id="textblocktransform"><svg viewBox="0 0 395.52 157.03127981533726" height="157.03127981533726" width="395.52" id="textblock"><g><svg viewBox="0 0 395.52 157.03127981533726" height="157.03127981533726" width="395.52"><g transform="matrix(1,0,0,1,0,0)"><svg width="395.52" viewBox="0.20000000000000284 -35 194.95 74.4" height="157.03127981533726" data-palette-color="#ffffff"><svg></svg><svg></svg><g class="wordmark-text-0" data-fill-palette-color="primary" id="text-0"><path d="M37-4.15h5.35v4.15h-16.35v-4.15h5.6l-3.2-8h-14.8l-3.15 8h6v4.15h-16.25v-4.15h5.35l11.15-26.05h-5.15v-4.1h19.3v4.1h-5.1zM15.1-15.9h11.8l-5.7-14.3h-0.4zM73.3-30.15l-11.95 16.75v9.25h6.6v4.15h-18.45v-4.15h6.7v-8.95l-12.3-17.05h-4.85v-4.15h15.75v4.15h-4.9l9.35 13.5 9-13.5h-5.65v-4.15h15.75v4.15zM96.45-19.4c4.4 1.233 7.717 2.683 9.95 4.35 2.233 1.667 3.35 3.883 3.35 6.65v0c0 1.8-0.49 3.39-1.47 4.77-0.987 1.387-2.347 2.447-4.08 3.18-1.733 0.733-3.683 1.1-5.85 1.1v0c-2.367 0-4.617-0.5-6.75-1.5-2.133-1-4.1-2.4-5.9-4.2v0 5h-4.55v-11.55l2.9-0.15c1.767 2.567 3.917 4.583 6.45 6.05 2.533 1.467 5.05 2.2 7.55 2.2v0c1.867 0 3.393-0.4 4.58-1.2 1.18-0.8 1.77-1.883 1.77-3.25v0c0-1.5-0.833-2.793-2.5-3.88-1.667-1.08-4.5-2.137-8.5-3.17v0c-4.167-1.1-7.217-2.543-9.15-4.33-1.933-1.78-2.9-3.97-2.9-6.57v0c0-1.8 0.493-3.393 1.48-4.78 0.98-1.38 2.303-2.447 3.97-3.2 1.667-0.747 3.483-1.12 5.45-1.12v0c4.633 0 8.383 1.7 11.25 5.1v0-4.4h4.55v11.4l-2.8 0.15c-1.4-2.667-3.117-4.683-5.15-6.05-2.033-1.367-4.267-2.05-6.7-2.05v0c-1.967 0-3.573 0.423-4.82 1.27-1.253 0.853-1.88 1.997-1.88 3.43v0c0 1.467 0.76 2.723 2.28 3.77 1.513 1.053 4.003 2.047 7.47 2.98zM148.8-4.15h5.35v4.15h-16.35v-4.15h5.6l-3.2-8h-14.8l-3.15 8h6v4.15h-16.25v-4.15h5.35l11.15-26.05h-5.15v-4.1h19.3v4.1h-5.1zM126.9-15.9h11.8l-5.7-14.3h-0.4zM192.6-6.25l2.55 3.35c-2.1 2.4-4.533 3.6-7.3 3.6v0c-2.9 0-5.34-1.05-7.32-3.15-1.987-2.1-3.597-5.333-4.83-9.7v0l-0.8-2.5h-7.15v10.5h6.3v4.15h-17.9v-4.1h6.45v-26.05h-6.45v-4.15h19.9c3.9 0 6.983 0.883 9.25 2.65 2.267 1.767 3.4 4.167 3.4 7.2v0c0 2.5-0.807 4.607-2.42 6.32-1.62 1.72-3.897 2.797-6.83 3.23v0l0.9 2.45c1.033 2.933 2.183 5.067 3.45 6.4 1.267 1.333 2.7 2 4.3 2v0c1 0 1.85-0.2 2.55-0.6 0.7-0.4 1.35-0.933 1.95-1.6zM167.75-30.15v11.6h8.45c2.133 0 3.9-0.527 5.3-1.58 1.4-1.047 2.1-2.487 2.1-4.32v0c0-1.767-0.69-3.16-2.07-4.18-1.387-1.013-3.163-1.52-5.33-1.52v0z" fill="#ffffff" fill-rule="nonzero" stroke="none" stroke-width="1" stroke-linecap="butt" stroke-linejoin="miter" stroke-miterlimit="10" stroke-dasharray="" stroke-dashoffset="0" font-family="none" font-weight="none" font-size="none" text-anchor="none" style="mix-blend-mode: normal" data-fill-palette-color="primary" opacity="1"></path><path transform="translate(0,38.7)" d="M18.95-19.4c4.4 1.233 7.717 2.683 9.95 4.35 2.233 1.667 3.35 3.883 3.35 6.65v0c0 1.8-0.49 3.39-1.47 4.77-0.987 1.387-2.347 2.447-4.08 3.18-1.733 0.733-3.683 1.1-5.85 1.1v0c-2.367 0-4.617-0.5-6.75-1.5-2.133-1-4.1-2.4-5.9-4.2v0 5h-4.55v-11.55l2.9-0.15c1.767 2.567 3.917 4.583 6.45 6.05 2.533 1.467 5.05 2.2 7.55 2.2v0c1.867 0 3.393-0.4 4.58-1.2 1.18-0.8 1.77-1.883 1.77-3.25v0c0-1.5-0.833-2.793-2.5-3.88-1.667-1.08-4.5-2.137-8.5-3.17v0c-4.167-1.1-7.217-2.543-9.15-4.33-1.933-1.78-2.9-3.97-2.9-6.57v0c0-1.8 0.493-3.393 1.48-4.78 0.98-1.38 2.303-2.447 3.97-3.2 1.667-0.747 3.483-1.12 5.45-1.12v0c4.633 0 8.383 1.7 11.25 5.1v0-4.4h4.55v11.4l-2.8 0.15c-1.4-2.667-3.117-4.683-5.15-6.05-2.033-1.367-4.267-2.05-6.7-2.05v0c-1.967 0-3.573 0.423-4.82 1.27-1.253 0.853-1.88 1.997-1.88 3.43v0c0 1.467 0.76 2.723 2.28 3.77 1.513 1.053 4.003 2.047 7.47 2.98zM36.2-34.3h35.1v11.25h-4.6v-7.1h-10.35v26h6.5v4.15h-18.2v-4.15h6.55v-26h-10.4v7.1h-4.6zM93.1 0.65c-3.333 0-6.357-0.76-9.07-2.28-2.72-1.513-4.853-3.62-6.4-6.32-1.553-2.7-2.33-5.767-2.33-9.2v0c0-3.467 0.777-6.55 2.33-9.25 1.547-2.7 3.68-4.81 6.4-6.33 2.713-1.513 5.737-2.27 9.07-2.27v0c3.3 0 6.31 0.757 9.03 2.27 2.713 1.52 4.847 3.637 6.4 6.35 1.547 2.72 2.32 5.797 2.32 9.23v0c0 3.433-0.773 6.5-2.32 9.2-1.553 2.7-3.687 4.807-6.4 6.32-2.72 1.52-5.73 2.28-9.03 2.28zM93.1-3.65c2.4 0 4.543-0.577 6.43-1.73 1.88-1.147 3.343-2.747 4.39-4.8 1.053-2.047 1.58-4.37 1.58-6.97v0c0-2.633-0.527-4.977-1.58-7.03-1.047-2.047-2.51-3.647-4.39-4.8-1.887-1.147-4.03-1.72-6.43-1.72v0c-2.433 0-4.6 0.573-6.5 1.72-1.9 1.153-3.367 2.763-4.4 4.83-1.033 2.067-1.55 4.4-1.55 7v0c0 2.633 0.517 4.973 1.55 7.02 1.033 2.053 2.493 3.647 4.38 4.78 1.88 1.133 4.053 1.7 6.52 1.7zM151.7-6.25l2.55 3.35c-2.1 2.4-4.533 3.6-7.3 3.6v0c-2.9 0-5.34-1.05-7.32-3.15-1.987-2.1-3.597-5.333-4.83-9.7v0l-0.8-2.5h-7.15v10.5h6.3v4.15h-17.9v-4.1h6.45v-26.05h-6.45v-4.15h19.9c3.9 0 6.983 0.883 9.25 2.65 2.267 1.767 3.4 4.167 3.4 7.2v0c0 2.5-0.807 4.607-2.42 6.32-1.62 1.72-3.897 2.797-6.83 3.23v0l0.9 2.45c1.033 2.933 2.183 5.067 3.45 6.4 1.267 1.333 2.7 2 4.3 2v0c1 0 1.85-0.2 2.55-0.6 0.7-0.4 1.35-0.933 1.95-1.6zM126.85-30.15v11.6h8.45c2.133 0 3.9-0.527 5.3-1.58 1.4-1.047 2.1-2.487 2.1-4.32v0c0-1.767-0.69-3.16-2.07-4.18-1.387-1.013-3.163-1.52-5.33-1.52v0zM188.9-23.3h-4.6v-6.85h-17.8v10.95h7.9v-4.65h4v13.1h-4v-4.65h-7.9v11.25h17.8v-6.85h4.6v11h-33.9v-4.15h6.4v-26h-6.4v-4.15h33.9z" fill="#ffffff" fill-rule="nonzero" stroke="none" stroke-width="1" stroke-linecap="butt" stroke-linejoin="miter" stroke-miterlimit="10" stroke-dasharray="" stroke-dashoffset="0" font-family="none" font-weight="none" font-size="none" text-anchor="none" style="mix-blend-mode: normal" data-fill-palette-color="primary" opacity="1"></path></g></svg></g></svg></g></svg></g></svg></g><g transform="matrix(1,0,0,1,0,0.3925781995383346)"><svg viewBox="0 0 141.32815183380353 157.03127981533726" height="157.03127981533726" width="141.32815183380353"><g><svg xmlns="http://www.w3.org/2000/svg" xmlns:xlink="http://www.w3.org/1999/xlink" version="1.1" x="0" y="0" viewBox="9.5 5 81 90" enable-background="new 0 0 100 100" xml:space="preserve" height="157.03127981533726" width="141.32815183380353" class="icon-icon-0" data-fill-palette-color="accent" id="icon-0"><g fill="#ffffff" data-fill-palette-color="accent"><path fill="#ffffff" d="M72.5 32v-9c0-9.94-8.058-18-18-18h-9c-9.94 0-18 8.06-18 18v9h-18v47.25C9.5 87.949 16.551 95 25.25 95h49.5c8.699 0 15.75-7.051 15.75-15.75V32H72.5zM36.5 23c0-4.964 4.039-9 9-9h9c4.964 0 9 4.036 9 9v9h-27V23zM27.5 50h9v9h-9V50zM45.5 77h-9v-9h9V77zM45.5 50h9v9h-9V50zM63.5 77h-9v-9h9V77zM72.5 59h-9v-9h9V59z" data-fill-palette-color="accent"></path></g></svg></g></svg></g></svg></g><defs></defs></svg><rect width="395.52" height="108.07131735494596" fill="none" stroke="none" visibility="hidden"></rect></g></svg></g></svg>