<?xml version="1.0" encoding="utf-8"?>
<!-- Generator: Adobe Illustrator 27.5.0, SVG Export Plug-In . SVG Version: 6.00 Build 0)  -->
<svg version="1.1" xmlns="http://www.w3.org/2000/svg" xmlns:xlink="http://www.w3.org/1999/xlink" x="0px" y="0px"
	 viewBox="0 0 500 500" style="enable-background:new 0 0 500 500;" xml:space="preserve">
<g id="BACKGROUND">
</g>
<g id="OBJECTS">
	<g>
		<g>
			<linearGradient id="SVGID_1_" gradientUnits="userSpaceOnUse" x1="260.5744" y1="78.7001" x2="259.9427" y2="437.7522">
				<stop  offset="0" style="stop-color:#F474A8"/>
				<stop  offset="0.5" style="stop-color:#F00086"/>
				<stop  offset="1" style="stop-color:#D20F87"/>
			</linearGradient>
			<path style="fill:url(#SVGID_1_);" d="M133.812,139.464c-3.41,0-6.185-2.774-6.185-6.185V83.811c0-3.41,2.774-6.185,6.185-6.185
				h253.419c3.41,0,6.185,2.774,6.185,6.185v49.468c0,3.41-2.774,6.185-6.185,6.185H133.812z"/>
			
				<linearGradient id="SVGID_00000069397335585127292520000008648693310954549420_" gradientUnits="userSpaceOnUse" x1="260.7534" y1="161.0798" x2="260.4376" y2="89.3957">
				<stop  offset="0" style="stop-color:#F474A8"/>
				<stop  offset="0.5" style="stop-color:#F00086"/>
				<stop  offset="1" style="stop-color:#D20F87"/>
			</linearGradient>
			<path style="fill:url(#SVGID_00000069397335585127292520000008648693310954549420_);" d="M133.812,135.464
				c-1.204,0-2.185-0.98-2.185-2.185V83.812c0-1.205,0.98-2.185,2.185-2.185h253.42c1.204,0,2.185,0.98,2.185,2.185v49.468
				c0,1.205-0.98,2.185-2.185,2.185H133.812z"/>
			<g>
				<rect x="152.254" y="139.464" style="fill:#414042;" width="5.58" height="13.415"/>
				<rect x="152.254" y="139.464" style="fill:#414042;" width="5.58" height="13.415"/>
				<rect x="361.698" y="139.464" style="fill:#414042;" width="5.58" height="13.415"/>
				<rect x="361.698" y="139.464" style="fill:#414042;" width="5.58" height="13.415"/>
			</g>
		</g>
		<g>
			<path style="fill:#75AC43;" d="M90.786,371.371c0,0,13.129-24.099-15.007-39.3C75.779,332.071,66.882,367.487,90.786,371.371z"/>
			<path style="fill:#86C556;" d="M94.078,374.534c0,0,28.807-13.277,13.215-46.79C107.293,327.744,74.597,354.434,94.078,374.534z"
				/>
			<path style="fill:#86C556;" d="M428.835,373.587c0,0-6.792-28.857,33.588-48.604
				C462.422,324.984,456.851,367.663,428.835,373.587z"/>
			<path style="fill:#75AC43;" d="M421.082,373.194c0,0-29.148-37.895,19.531-78C440.613,295.194,459.924,371.3,421.082,373.194z"/>
			<rect x="99.024" y="176.247" style="fill:#B23068;" width="322.995" height="247.259"/>
			<path style="fill:#812550;" d="M457.073,176.247H63.97c-3.075,0-5.568-2.493-5.568-5.568v-12.232
				c0-3.075,2.493-5.568,5.568-5.568h393.103c3.075,0,5.568,2.493,5.568,5.568v12.232
				C462.642,173.754,460.149,176.247,457.073,176.247z"/>
			<path style="fill:#FFD6E7;" d="M85.138,228.207L85.138,228.207c-7.433,0-13.458-6.025-13.458-13.458v-38.502h26.916v38.502
				C98.596,222.182,92.571,228.207,85.138,228.207z"/>
			
				<linearGradient id="SVGID_00000041999842421492994210000013653559413981747630_" gradientUnits="userSpaceOnUse" x1="111.7759" y1="163.7573" x2="112.9994" y2="303.2326">
				<stop  offset="0" style="stop-color:#F474A8"/>
				<stop  offset="0.5" style="stop-color:#F00086"/>
				<stop  offset="1" style="stop-color:#D20F87"/>
			</linearGradient>
			<path style="fill:url(#SVGID_00000041999842421492994210000013653559413981747630_);" d="M112.055,228.207L112.055,228.207
				c-7.433,0-13.458-6.025-13.458-13.458v-38.502h26.916v38.502C125.513,222.182,119.487,228.207,112.055,228.207z"/>
			<path style="fill:#FFD6E7;" d="M138.971,228.207L138.971,228.207c-7.433,0-13.458-6.025-13.458-13.458v-38.502h26.916v38.502
				C152.429,222.182,146.404,228.207,138.971,228.207z"/>
			
				<linearGradient id="SVGID_00000179629678348542367070000016190490400829169286_" gradientUnits="userSpaceOnUse" x1="165.6084" y1="163.7573" x2="166.8319" y2="303.2326">
				<stop  offset="0" style="stop-color:#F474A8"/>
				<stop  offset="0.5" style="stop-color:#F00086"/>
				<stop  offset="1" style="stop-color:#D20F87"/>
			</linearGradient>
			<path style="fill:url(#SVGID_00000179629678348542367070000016190490400829169286_);" d="M165.887,228.207L165.887,228.207
				c-7.433,0-13.458-6.025-13.458-13.458v-38.502h26.916v38.502C179.345,222.182,173.32,228.207,165.887,228.207z"/>
			<path style="fill:#FFD6E7;" d="M192.803,228.207L192.803,228.207c-7.433,0-13.458-6.025-13.458-13.458v-38.502h26.916v38.502
				C206.261,222.182,200.236,228.207,192.803,228.207z"/>
			
				<linearGradient id="SVGID_00000142168962392860830870000003186807108605755567_" gradientUnits="userSpaceOnUse" x1="219.4409" y1="163.7573" x2="220.6644" y2="303.2326">
				<stop  offset="0" style="stop-color:#F474A8"/>
				<stop  offset="0.5" style="stop-color:#F00086"/>
				<stop  offset="1" style="stop-color:#D20F87"/>
			</linearGradient>
			<path style="fill:url(#SVGID_00000142168962392860830870000003186807108605755567_);" d="M219.72,228.207L219.72,228.207
				c-7.433,0-13.458-6.025-13.458-13.458v-38.502h26.916v38.502C233.178,222.182,227.152,228.207,219.72,228.207z"/>
			<path style="fill:#FFD6E7;" d="M246.636,228.207L246.636,228.207c-7.433,0-13.458-6.025-13.458-13.458v-38.502h26.916v38.502
				C260.094,222.182,254.069,228.207,246.636,228.207z"/>
			
				<linearGradient id="SVGID_00000145778094801589057480000012276949670952132242_" gradientUnits="userSpaceOnUse" x1="273.2734" y1="163.7573" x2="274.4969" y2="303.2326">
				<stop  offset="0" style="stop-color:#F474A8"/>
				<stop  offset="0.5" style="stop-color:#F00086"/>
				<stop  offset="1" style="stop-color:#D20F87"/>
			</linearGradient>
			<path style="fill:url(#SVGID_00000145778094801589057480000012276949670952132242_);" d="M273.552,228.207L273.552,228.207
				c-7.433,0-13.458-6.025-13.458-13.458v-38.502h26.916v38.502C287.01,222.182,280.985,228.207,273.552,228.207z"/>
			<path style="fill:#FFD6E7;" d="M300.468,228.207L300.468,228.207c-7.433,0-13.458-6.025-13.458-13.458v-38.502h26.916v38.502
				C313.926,222.182,307.901,228.207,300.468,228.207z"/>
			
				<linearGradient id="SVGID_00000083071235114238437400000002588386303203707035_" gradientUnits="userSpaceOnUse" x1="327.1059" y1="163.7573" x2="328.3294" y2="303.2326">
				<stop  offset="0" style="stop-color:#F474A8"/>
				<stop  offset="0.5" style="stop-color:#F00086"/>
				<stop  offset="1" style="stop-color:#D20F87"/>
			</linearGradient>
			<path style="fill:url(#SVGID_00000083071235114238437400000002588386303203707035_);" d="M327.385,228.207L327.385,228.207
				c-7.433,0-13.458-6.025-13.458-13.458v-38.502h26.916v38.502C340.843,222.182,334.817,228.207,327.385,228.207z"/>
			<path style="fill:#FFD6E7;" d="M354.301,228.207L354.301,228.207c-7.433,0-13.458-6.025-13.458-13.458v-38.502h26.916v38.502
				C367.759,222.182,361.734,228.207,354.301,228.207z"/>
			
				<linearGradient id="SVGID_00000155147740311202365450000007775203653529453752_" gradientUnits="userSpaceOnUse" x1="380.9384" y1="163.7573" x2="382.162" y2="303.2326">
				<stop  offset="0" style="stop-color:#F474A8"/>
				<stop  offset="0.5" style="stop-color:#F00086"/>
				<stop  offset="1" style="stop-color:#D20F87"/>
			</linearGradient>
			<path style="fill:url(#SVGID_00000155147740311202365450000007775203653529453752_);" d="M381.217,228.207L381.217,228.207
				c-7.433,0-13.458-6.025-13.458-13.458v-38.502h26.916v38.502C394.675,222.182,388.65,228.207,381.217,228.207z"/>
			<path style="fill:#FFD6E7;" d="M408.133,228.207L408.133,228.207c-7.433,0-13.458-6.025-13.458-13.458v-38.502h26.916v38.502
				C421.591,222.182,415.566,228.207,408.133,228.207z"/>
			
				<linearGradient id="SVGID_00000124149903498919495670000006469892935999361934_" gradientUnits="userSpaceOnUse" x1="434.7709" y1="163.7573" x2="435.9944" y2="303.2326">
				<stop  offset="0" style="stop-color:#F474A8"/>
				<stop  offset="0.5" style="stop-color:#F00086"/>
				<stop  offset="1" style="stop-color:#D20F87"/>
			</linearGradient>
			<path style="fill:url(#SVGID_00000124149903498919495670000006469892935999361934_);" d="M435.05,228.207L435.05,228.207
				c-7.433,0-13.458-6.025-13.458-13.458v-38.502h26.916v38.502C448.508,222.182,442.482,228.207,435.05,228.207z"/>
			<rect x="209.364" y="370.141" style="fill:#812550;" width="198.769" height="37.895"/>
			<rect x="209.364" y="241.931" style="fill:none;stroke:#812550;stroke-miterlimit:10;" width="198.769" height="118.105"/>
			<rect x="213.785" y="246.183" style="fill:none;stroke:#812550;stroke-miterlimit:10;" width="189.736" height="110.063"/>
			<rect x="113.682" y="241.931" style="fill:none;stroke:#812550;stroke-miterlimit:10;" width="81.972" height="166.105"/>
			<g>
				<rect x="117.682" y="245.931" style="fill:#163954;" width="73.972" height="158.105"/>
				<rect x="218.421" y="250.183" style="fill:#163954;" width="180.995" height="102.063"/>
			</g>
			<g style="opacity:0.1;">
				<polygon style="fill:#FFFFFF;" points="147.074,404.036 191.653,338.363 191.653,331.559 142.455,404.036 				"/>
				<polygon style="fill:#FFFFFF;" points="117.682,297.393 117.682,318.092 166.638,245.931 152.596,245.931 				"/>
				<polygon style="fill:#FFFFFF;" points="306.896,352.247 311.515,352.247 380.796,250.183 376.178,250.183 				"/>
				<polygon style="fill:#FFFFFF;" points="179.726,245.931 175.108,245.931 117.682,330.53 117.682,337.333 				"/>
				<polygon style="fill:#FFFFFF;" points="218.421,298.93 251.51,250.183 246.892,250.183 218.421,292.126 				"/>
				<polygon style="fill:#FFFFFF;" points="399.416,274.962 399.416,250.183 393.052,250.183 323.599,352.247 346.825,352.247 				
					"/>
				<polygon style="fill:#FFFFFF;" points="263.522,250.183 218.421,316.594 218.421,327.744 271.094,250.183 				"/>
				<polygon style="fill:#FFFFFF;" points="191.653,367.159 191.653,356.009 159.038,404.036 166.609,404.036 				"/>
			</g>
		</g>
		<path style="fill:#812550;" d="M448.508,458.773H71.68v-28.732c0-3.609,2.926-6.535,6.535-6.535h363.758
			c3.609,0,6.535,2.926,6.535,6.535V458.773z"/>
		<path style="fill:#812550;" d="M49.969,247.302h49.056v-2.742H49.969c-0.757,0-1.371,0.614-1.371,1.371v0
			C48.597,246.689,49.211,247.302,49.969,247.302z"/>
		
			<linearGradient id="SVGID_00000095308039110121395680000012847738994416086204_" gradientUnits="userSpaceOnUse" x1="66.3536" y1="346.7733" x2="66.3536" y2="252.4577">
			<stop  offset="0" style="stop-color:#F474A8"/>
			<stop  offset="0.5" style="stop-color:#F00086"/>
			<stop  offset="1" style="stop-color:#D20F87"/>
		</linearGradient>
		<circle style="fill:url(#SVGID_00000095308039110121395680000012847738994416086204_);" cx="66.354" cy="293.631" r="28.995"/>
		<circle style="fill:none;stroke:#812550;stroke-miterlimit:10;" cx="66.354" cy="293.631" r="25.38"/>
		<text transform="matrix(1.1372 0 0 1 48.6439 301.5146)" style="fill:#FFD6E7; font-family:'BebasNeue'; font-size:19.8651px;">OPEN</text>
		<rect x="65.59" y="245.931" style="fill:#812550;" width="1.527" height="24.86"/>
		<circle style="fill:#812550;" cx="66.24" cy="270.868" r="2.678"/>
		<path style="fill:#812550;" d="M87.405,408.036h11.619v-37.895H81.293v31.783C81.293,405.3,84.029,408.036,87.405,408.036z"/>
		<path style="fill:#812550;" d="M421.591,408.036h7.983c5.384,0,9.749-4.365,9.749-9.749v-28.146h-17.731V408.036z"/>
		
			<text transform="matrix(1.1372 0 0 1 189.3744 121.9312)" style="fill:#FFFFFF; font-family:'Montserrat-ExtraBold'; font-size:35.3993px;">STORE</text>
		<rect x="71.68" y="440.762" style="fill:#B23068;" width="376.828" height="6.011"/>
		
			<text transform="matrix(1.1372 0 0 1 239.0726 317.5674)" style="fill:#68FFE6; font-family:'Nickainley-Normal'; font-size:64.1091px;">Open</text>
	</g>
	<rect y="458.773" style="fill:#BCD2CE;" width="500" height="41.227"/>
</g>
</svg>
