<svg xmlns="http://www.w3.org/2000/svg" version="1.1" xmlns:xlink="http://www.w3.org/1999/xlink" xmlns:svgjs="http://svgjs.dev/svgjs" width="1000" height="270" viewBox="0 0 1000 270"><g transform="matrix(1,0,0,1,-0.6060606060606801,0.1633182990482851)"><svg viewBox="0 0 396 107" data-background-color="#ffffff" preserveAspectRatio="xMidYMid meet" height="270" width="1000" xmlns="http://www.w3.org/2000/svg" xmlns:xlink="http://www.w3.org/1999/xlink"><g id="tight-bounds" transform="matrix(1,0,0,1,0.24000000000003752,-0.06472243703024105)"><svg viewBox="0 0 395.5199999999999 107.12944487406047" height="107.12944487406047" width="395.5199999999999"><g><svg viewBox="0 0 575.2633270948946 155.8142215010142" height="107.12944487406047" width="395.5199999999999"><g><rect width="6.448166954042677" height="155.8142215010142" x="156.41514193655175" y="0" fill="#ff4057" opacity="1" stroke-width="0" stroke="transparent" fill-opacity="1" class="rect-r$-0" data-fill-palette-color="primary" rx="1%" id="r$-0" data-palette-color="#ff4057"></rect></g><g transform="matrix(1,0,0,1,179.74332709489462,0.38759756592291694)"><svg viewBox="0 0 395.52000000000004 155.03902636916837" height="155.03902636916837" width="395.52000000000004"><g id="textblocktransform"><svg viewBox="0 0 395.52000000000004 155.03902636916837" height="155.03902636916837" width="395.52000000000004" id="textblock"><g><svg viewBox="0 0 395.52000000000004 155.03902636916837" height="155.03902636916837" width="395.52000000000004"><g transform="matrix(1,0,0,1,0,0)"><svg width="395.52000000000004" viewBox="-0.34999999999999964 -35 197.2 74.30000000000001" height="155.03902636916837" data-palette-color="#ff4057"><svg></svg><svg></svg><g class="wordmark-text-0" data-fill-palette-color="primary" id="text-0"><path d="M37.2-1.55h6.8v1.55h-15v-1.55h6.35l-4.85-11.55h-17.45l-4.85 11.55h6.6v1.55h-15.15v-1.55h6.9l13.55-31.25h-7.1v-1.5h17.6v1.5h-7.15zM13.75-14.65h16.05l-7.65-18.15h-0.75zM74.8-32.75l-13.1 20.55v10.65h7.75v1.55h-17.2v-1.55h7.8v-10.45l-13.25-20.75h-6.1v-1.55h14.95v1.55h-7l12.2 19.1 12.05-19.1h-6.85v-1.55h14.9v1.55zM97.35-17.75c4.5 1.167 7.733 2.523 9.7 4.07 1.967 1.553 2.95 3.597 2.95 6.13v0c0 1.567-0.473 2.973-1.42 4.22-0.953 1.253-2.253 2.23-3.9 2.93-1.653 0.7-3.497 1.05-5.53 1.05v0c-2.667 0-5.183-0.65-7.55-1.95-2.367-1.3-4.317-3.1-5.85-5.4v0 6.7h-1.55v-10.45l0.4-0.05c1.8 3.133 3.927 5.517 6.38 7.15 2.447 1.633 5.17 2.45 8.17 2.45v0c2.633 0 4.827-0.61 6.58-1.83 1.747-1.213 2.62-2.82 2.62-4.82v0c0-2.033-0.85-3.727-2.55-5.08-1.7-1.347-4.533-2.503-8.5-3.47v0c-8.467-2.033-12.7-5.6-12.7-10.7v0c0-1.633 0.427-3.067 1.28-4.3 0.847-1.233 2.02-2.193 3.52-2.88 1.5-0.68 3.2-1.02 5.1-1.02v0c2.633 0 5 0.607 7.1 1.82 2.1 1.22 3.833 2.98 5.2 5.28v0-6.4h1.55v10.45l-0.4 0.05c-1.8-3.367-3.757-5.817-5.87-7.35-2.12-1.533-4.647-2.3-7.58-2.3v0c-2.4 0-4.373 0.583-5.92 1.75-1.553 1.167-2.33 2.75-2.33 4.75v0c0 2.133 0.91 3.95 2.73 5.45 1.813 1.5 4.603 2.75 8.37 3.75zM150.15-1.55h6.8v1.55h-15v-1.55h6.35l-4.85-11.55h-17.45l-4.85 11.55h6.6v1.55h-15.15v-1.55h6.9l13.55-31.25h-7.1v-1.5h17.6v1.5h-7.15zM126.7-14.65h16.05l-7.65-18.15h-0.75zM195.75-4l1.1 1.05c-0.767 1.033-1.723 1.89-2.87 2.57-1.153 0.687-2.48 1.03-3.98 1.03v0c-2.567 0-4.757-0.967-6.57-2.9-1.82-1.933-3.43-4.883-4.83-8.85v0l-1.7-4.8h-9.2v14.4l7.45-0.05v1.55l-16.55 0.05v-1.5l7.45-0.05v-31.3h-7.45v-1.5h19.1c2.433 0 4.51 0.407 6.23 1.22 1.713 0.82 3.013 1.937 3.9 3.35 0.88 1.42 1.32 3.013 1.32 4.78v0c0 1.5-0.417 2.923-1.25 4.27-0.833 1.353-2.05 2.463-3.65 3.33-1.6 0.867-3.533 1.35-5.8 1.45v0l1.7 4.55c1.333 3.533 2.783 6.157 4.35 7.87 1.567 1.72 3.4 2.58 5.5 2.58v0c2.2 0 4.117-1.033 5.75-3.1zM167.7-32.8v15.55h10c2.033 0 3.793-0.35 5.28-1.05 1.48-0.7 2.603-1.643 3.37-2.83 0.767-1.18 1.15-2.453 1.15-3.82v0c0-1.433-0.373-2.743-1.12-3.93-0.753-1.18-1.863-2.13-3.33-2.85-1.467-0.713-3.25-1.07-5.35-1.07v0z" fill="#ff4057" fill-rule="nonzero" stroke="none" stroke-width="1" stroke-linecap="butt" stroke-linejoin="miter" stroke-miterlimit="10" stroke-dasharray="" stroke-dashoffset="0" font-family="none" font-weight="none" font-size="none" text-anchor="none" style="mix-blend-mode: normal" data-fill-palette-color="primary" opacity="1"></path><path transform="translate(0,38.65)" d="M17.1-17.75c4.5 1.167 7.733 2.523 9.7 4.07 1.967 1.553 2.95 3.597 2.95 6.13v0c0 1.567-0.473 2.973-1.42 4.22-0.953 1.253-2.253 2.23-3.9 2.93-1.653 0.7-3.497 1.05-5.53 1.05v0c-2.667 0-5.183-0.65-7.55-1.95-2.367-1.3-4.317-3.1-5.85-5.4v0 6.7h-1.55v-10.45l0.4-0.05c1.8 3.133 3.927 5.517 6.38 7.15 2.447 1.633 5.17 2.45 8.17 2.45v0c2.633 0 4.827-0.61 6.58-1.83 1.747-1.213 2.62-2.82 2.62-4.82v0c0-2.033-0.85-3.727-2.55-5.08-1.7-1.347-4.533-2.503-8.5-3.47v0c-8.467-2.033-12.7-5.6-12.7-10.7v0c0-1.633 0.427-3.067 1.28-4.3 0.847-1.233 2.02-2.193 3.52-2.88 1.5-0.68 3.2-1.02 5.1-1.02v0c2.633 0 5 0.607 7.1 1.82 2.1 1.22 3.833 2.98 5.2 5.28v0-6.4h1.55v10.45l-0.4 0.05c-1.8-3.367-3.757-5.817-5.87-7.35-2.12-1.533-4.647-2.3-7.58-2.3v0c-2.4 0-4.373 0.583-5.92 1.75-1.553 1.167-2.33 2.75-2.33 4.75v0c0 2.133 0.907 3.95 2.72 5.45 1.82 1.5 4.613 2.75 8.38 3.75zM35.7-34.3h32.95v8.95h-1.65v-7.45h-14v31.25h7.8v1.55h-17.2v-1.55h7.75v-31.25h-14v7.45h-1.65zM91 0.65c-3.1 0-5.917-0.71-8.45-2.13-2.533-1.413-4.54-3.47-6.02-6.17-1.487-2.7-2.23-5.867-2.23-9.5v0c0-3.667 0.743-6.85 2.23-9.55 1.48-2.7 3.487-4.76 6.02-6.18 2.533-1.413 5.35-2.12 8.45-2.12v0c3.067 0 5.867 0.717 8.4 2.15 2.533 1.433 4.543 3.49 6.03 6.17 1.48 2.687 2.22 5.863 2.22 9.53v0c0 3.633-0.74 6.8-2.22 9.5-1.487 2.7-3.497 4.757-6.03 6.17-2.533 1.42-5.333 2.13-8.4 2.13zM91-0.9c2.8 0 5.343-0.66 7.63-1.98 2.28-1.313 4.08-3.197 5.4-5.65 1.313-2.447 1.97-5.32 1.97-8.62v0c0-3.3-0.657-6.183-1.97-8.65-1.32-2.467-3.12-4.36-5.4-5.68-2.287-1.313-4.83-1.97-7.63-1.97v0c-2.833 0-5.39 0.657-7.67 1.97-2.287 1.32-4.087 3.213-5.4 5.68-1.32 2.467-1.98 5.35-1.98 8.65v0c0 3.3 0.66 6.173 1.98 8.62 1.313 2.453 3.113 4.337 5.4 5.65 2.28 1.32 4.837 1.98 7.67 1.98zM150.45-4l1.1 1.05c-0.767 1.033-1.723 1.89-2.87 2.57-1.153 0.687-2.48 1.03-3.98 1.03v0c-2.567 0-4.757-0.967-6.57-2.9-1.82-1.933-3.43-4.883-4.83-8.85v0l-1.7-4.8h-9.2v14.4l7.45-0.05v1.55l-16.55 0.05v-1.5l7.45-0.05v-31.3h-7.45v-1.5h19.1c2.433 0 4.51 0.407 6.23 1.22 1.713 0.82 3.013 1.937 3.9 3.35 0.88 1.42 1.32 3.013 1.32 4.78v0c0 1.5-0.417 2.923-1.25 4.27-0.833 1.353-2.05 2.463-3.65 3.33-1.6 0.867-3.533 1.35-5.8 1.45v0l1.7 4.55c1.333 3.533 2.783 6.157 4.35 7.87 1.567 1.72 3.4 2.58 5.5 2.58v0c2.2 0 4.117-1.033 5.75-3.1zM122.4-32.8v15.55h10c2.033 0 3.793-0.35 5.28-1.05 1.48-0.7 2.603-1.643 3.37-2.83 0.767-1.18 1.15-2.453 1.15-3.82v0c0-1.433-0.373-2.743-1.12-3.93-0.753-1.18-1.863-2.13-3.33-2.85-1.467-0.713-3.25-1.07-5.35-1.07v0zM185-25.35h-1.65v-7.4h-21.35v14h11.05v-5.45h1.65v12.45h-1.65v-5.45h-11.05v15.65h21.35v-7.4h1.65v8.95h-32.1v-1.55h7.45v-31.2h-7.45v-1.55h32.1z" fill="#ff4057" fill-rule="nonzero" stroke="none" stroke-width="1" stroke-linecap="butt" stroke-linejoin="miter" stroke-miterlimit="10" stroke-dasharray="" stroke-dashoffset="0" font-family="none" font-weight="none" font-size="none" text-anchor="none" style="mix-blend-mode: normal" data-fill-palette-color="primary" opacity="1"></path></g></svg></g></svg></g></svg></g></svg></g><g transform="matrix(1,0,0,1,0,0.38759756592291694)"><svg viewBox="0 0 139.53512373225155 155.03902636916837" height="155.03902636916837" width="139.53512373225155"><g><svg xmlns="http://www.w3.org/2000/svg" xmlns:xlink="http://www.w3.org/1999/xlink" version="1.1" x="0" y="0" viewBox="9.5 5 81 90" enable-background="new 0 0 100 100" xml:space="preserve" height="155.03902636916837" width="139.53512373225155" class="icon-icon-0" data-fill-palette-color="accent" id="icon-0"><g fill="#dcdcdc" data-fill-palette-color="accent"><path fill="#dcdcdc" d="M72.5 32v-9c0-9.94-8.058-18-18-18h-9c-9.94 0-18 8.06-18 18v9h-18v47.25C9.5 87.949 16.551 95 25.25 95h49.5c8.699 0 15.75-7.051 15.75-15.75V32H72.5zM36.5 23c0-4.964 4.039-9 9-9h9c4.964 0 9 4.036 9 9v9h-27V23zM27.5 50h9v9h-9V50zM45.5 77h-9v-9h9V77zM45.5 50h9v9h-9V50zM63.5 77h-9v-9h9V77zM72.5 59h-9v-9h9V59z" data-fill-palette-color="accent"></path></g></svg></g></svg></g></svg></g><defs></defs></svg><rect width="395.5199999999999" height="107.12944487406047" fill="none" stroke="none" visibility="hidden"></rect></g></svg></g></svg>